<svg width="18" height="18" viewBox="0 0 18 18" fill="none" xmlns="http://www.w3.org/2000/svg">
<path opacity="0.5" d="M4.85713 9.57141C4.69933 9.57141 4.57141 9.44349 4.57141 9.2857V8.71427C4.57141 8.55647 4.69933 8.42855 4.85713 8.42855H12C12.3156 8.42855 12.5714 8.68439 12.5714 8.99998V8.99998C12.5714 9.31557 12.3156 9.57141 12 9.57141H4.85713Z" fill="#04D361"/>
<path d="M8.16735 12.0244C7.94419 12.2475 7.94419 12.6094 8.16735 12.8325C8.39051 13.0557 8.75231 13.0557 8.97547 12.8325L12.404 9.40394C12.6204 9.18761 12.6279 8.83927 12.4212 8.61375L9.27836 5.18518C9.0651 4.95254 8.70364 4.93682 8.471 5.15008C8.23836 5.36333 8.22264 5.7248 8.43589 5.95744L11.209 8.98269L8.16735 12.0244Z" fill="#04D361"/>
</svg>
