<svg width="40" height="40" viewBox="0 0 40 40" fill="none" xmlns="http://www.w3.org/2000/svg">
<path opacity="0.5" d="M11.3333 21.3334C10.9651 21.3334 10.6666 21.0349 10.6666 20.6667V19.3334C10.6666 18.9652 10.9651 18.6667 11.3333 18.6667H28C28.7363 18.6667 29.3333 19.2637 29.3333 20V20C29.3333 20.7364 28.7363 21.3334 28 21.3334H11.3333Z" fill="white"/>
<path d="M19.0572 27.0572C18.5365 27.5779 18.5365 28.4222 19.0572 28.9428C19.5779 29.4635 20.4221 29.4635 20.9428 28.9428L28.9428 20.9429C29.4476 20.4381 29.4653 19.6253 28.9829 19.0991L21.6496 11.0991C21.152 10.5563 20.3086 10.5196 19.7657 11.0172C19.2229 11.5148 19.1862 12.3582 19.6838 12.901L26.1545 19.9599L19.0572 27.0572Z" fill="white"/>
</svg>
